<?xml version="1.0" encoding="utf-8"?>
<!-- Generator: Adobe Illustrator 19.1.1, SVG Export Plug-In . SVG Version: 6.00 Build 0)  -->
<svg version="1.1" id="Layer_1" xmlns="http://www.w3.org/2000/svg" xmlns:xlink="http://www.w3.org/1999/xlink" x="0px" y="0px"
	 viewBox="0 0 512 512" style="enable-background:new 0 0 512 512;" xml:space="preserve">
<style type="text/css">
	.st0{fill:#FFFFFF;}
	.st1{fill:#E5304F;}
</style>
<g>
	<g>
		<path class="st0" d="M77.1,473.1c-6.1,3.5-15.3,5.6-24.1,5.6c-18.5,0.2-31-10.5-31-28.6v-34.7H10v-20.6h12v-24.1h32.1v24.1h21.4
			v20.6H54.1v29.7c0,5.6,2.9,8.3,7.3,8.3c2.6,0,6.1-1.1,9.9-2.6L77.1,473.1z"/>
		<path class="st0" d="M166.7,420.9v56.4H135v-9.6c-5.3,7-13.9,11-25.4,11c-18.5,0-29.4-11-29.4-27.3c0-16.8,11.7-26,33.5-26.3H135
			v-0.3c0-7.2-5.1-11.5-15-11.5c-6.9,0-16.6,2.1-26.2,6.2l-8-21.4c14.2-5.7,28.3-8.9,41.8-8.9C152.1,389.1,166.7,400.8,166.7,420.9z
			 M135,448.7v-7.8h-14.7c-6.4,0-9.7,2.7-9.7,8.1c0,5.4,3.5,8.6,9.7,8.6C126.9,457.6,132.6,454.1,135,448.7z"/>
		<path class="st0" d="M213.4,404.1c6.1-9.6,15.5-15,27.3-15v29.1c-16.6-2.1-27.3,4.9-27.3,17.6v41.5h-32.3v-86.9h32.3V404.1z"/>
		<path class="st0" d="M397.6,422.2v55.1h-32.3v-45.8c0-8.6-4.8-14.1-12-14.1c-8.3,0.2-13.6,7-13.6,16.9v43h-32.3v-45.8
			c0-8.6-4.8-14.1-12-14.1c-8.5,0.2-13.7,7-13.7,16.9v43h-32.3v-86.9h32.3v13.3c5.9-9.4,15.2-14.5,27-14.5c13.6,0,24,7,28.6,18.8
			c5.6-12.1,15.8-18.8,29.4-18.8C385.1,389.1,397.6,402,397.6,422.2z"/>
		<path class="st0" d="M502,433.8c0,26.8-19,44.6-48.2,44.6c-29.2,0-48.4-17.7-48.4-44.6c0-27,19.2-44.6,48.4-44.6
			C483,389.3,502,406.8,502,433.8z M438,434.1c0,11.7,6.2,19.3,15.8,19.3c9.4,0,15.7-7.7,15.7-19.3c0-11.5-6.2-19.3-15.7-19.3
			C444.2,414.8,438,422.6,438,434.1z"/>
	</g>
	<path class="st0" d="M379.5,309.9l-39.7-92.3c-0.3-0.7-1.2-1-1.9-0.7l-37,18.6c-1.8,0.9-4.4,1.7-6.2,2.4c-0.9,0.3-2.8-0.3-2.8-1.3
		v-51.2c0-0.7,1.5-1.3,2.2-1.4l67.1-7.2c0.7-0.1,0.7-0.7,0.7-1.4V74.9c0-0.8,0.4-1.5-0.5-1.4L294,81c-0.8,0.1-2-0.5-2-1.4v-45
		c0-0.8,0.3-1.5-0.6-1.4L181,45.3c-0.7,0.1-1,0.7-1,1.4v45.4c0,0.7-0.3,1.3-1,1.4l-30.4,3.2c-0.7,0.1-1.7,0.7-1.7,1.4v100.1
		c0,0.8,1.3,1.5,2.1,1.4l29.4-3.1c0.8-0.1,1.5,0.6,1.5,1.4v57.6c0,55.2,39.7,92.6,98,92.6h0.3c1.2,0,7.1-0.2,9.9-0.4
		c14.8-1.1,40-8.1,59.8-18.9l31-17C379.6,311.3,379.8,310.6,379.5,309.9z"/>
	<path class="st1" d="M343.4,297.2L326,256.7c-0.4-0.9-1.5-1.3-2.4-0.9l-9.8,5c-10.6,5.3-21.6,8-31.2,8c-13.7,0-18.6-4.1-18.6-18.3
		v-90.1c0-0.9,1.6-1.6,2.4-1.7l67.4-7.1c0.9-0.1,1.2-0.8,1.2-1.7v-43c0-1-0.1-1.8-1.1-1.7l-67.5,7.4c-1,0.1-2.4-0.7-2.4-1.7V66.5
		c0-1,0-1.8-1-1.7l-54,5.8c-0.9,0.1-2,0.8-2,1.7v44.9c0,0.9,0.2,1.6-0.7,1.7l-29.8,3.1c-0.9,0.1-1.6,0.8-1.6,1.7v42.6
		c0,1,1.4,1.8,2.4,1.7l28.3-3.1c1-0.1,1.3,0.7,1.3,1.7v88.6c0,39.4,28.4,64.6,71,64.6h0.1l0.1-0.4c19.5-0.4,38.3-5.8,56.2-15.5
		l8.2-4.6C343.4,299.1,343.7,298.1,343.4,297.2z"/>
</g>
</svg>
