<?xml version="1.0" encoding="utf-8"?>
<!-- Generator: Adobe Illustrator 19.1.1, SVG Export Plug-In . SVG Version: 6.00 Build 0)  -->
<svg version="1.1" id="Layer_1" xmlns="http://www.w3.org/2000/svg" xmlns:xlink="http://www.w3.org/1999/xlink" x="0px" y="0px"
	 viewBox="0 0 621.4 232.9" style="enable-background:new 0 0 621.4 232.9;" xml:space="preserve">
<style type="text/css">
	.st0{fill:#FFFFFF;}
	.st1{fill:#E5304F;}
</style>
<g>
	<path class="st0" d="M268.9,157.4c-5,2.9-12.7,4.6-20,4.6c-15.4,0.1-25.7-8.7-25.7-23.7v-28.7h-9.9V92.4h9.9v-20h26.6v20h17.8v17.1
		h-17.8v24.6c0,4.6,2.4,6.9,6.1,6.9c2.1,0,5-0.9,8.2-2.1L268.9,157.4z"/>
	<path class="st0" d="M343.2,114v46.8H317v-7.9c-4.4,5.8-11.5,9.1-21.1,9.1c-15.4,0-24.4-9.1-24.4-22.7c0-13.9,9.7-21.6,27.8-21.9
		H317v-0.3c0-6-4.2-9.5-12.5-9.5c-5.7,0-13.8,1.7-21.7,5.2l-6.6-17.8c11.8-4.8,23.4-7.4,34.7-7.4C331.2,87.7,343.2,97.3,343.2,114z
		 M317,137.1v-6.5h-12.2c-5.3,0-8.1,2.3-8.1,6.8c0,4.5,2.9,7.2,8.1,7.2C310.2,144.5,315,141.6,317,137.1z"/>
	<path class="st0" d="M382,100.1c5-7.9,12.9-12.5,22.7-12.5v24.1c-13.8-1.7-22.7,4.1-22.7,14.6v34.4h-26.8V88.7H382V100.1z"/>
	<path class="st0" d="M534.8,115.1v45.7H508v-38c0-7.2-4-11.7-9.9-11.7c-6.9,0.1-11.3,5.8-11.3,14v35.6h-26.8v-38
		c0-7.2-4-11.7-9.9-11.7c-7,0.1-11.4,5.8-11.4,14v35.6H412V88.7h26.8v11c4.9-7.8,12.6-12.1,22.4-12.1c11.3,0,19.9,5.8,23.7,15.6
		c4.6-10.1,13.1-15.6,24.4-15.6C524.4,87.7,534.8,98.4,534.8,115.1z"/>
	<path class="st0" d="M621.4,124.8c0,22.3-15.8,37-40,37s-40.1-14.7-40.1-37c0-22.4,15.9-37,40.1-37S621.4,102.4,621.4,124.8z
		 M568.3,125c0,9.7,5.2,16,13.1,16c7.8,0,13-6.4,13-16c0-9.5-5.2-16-13-16C573.5,109,568.3,115.5,568.3,125z"/>
</g>
<g>
	<path class="st0" d="M171.6,204.9l-29.4-68.4c-0.2-0.5-0.9-0.8-1.4-0.5l-27.4,13.8c-1.4,0.7-2.6,1.3-4,1.8c-0.7,0.2-1.5-0.3-1.5-1
		v-38c0-0.5,0.5-1,1-1l50.1-5.3c0.5-0.1,0.9-0.5,0.9-1V30.8c0-0.6-0.4-1.1-1-1l-49.8,5.5c-0.6,0.1-1.2-0.4-1.2-1V1
		c0-0.6-0.4-1.1-1-1L25,8.9c-0.5,0.1-1,0.5-1,1v33.7c0,0.5-0.3,1-0.8,1L1,47c-0.5,0.1-1,0.5-1,1v74.1c0,0.6,0.6,1.1,1.2,1l21.7-2.3
		c0.6-0.1,1.1,0.4,1.1,1v42.7c0,40.9,29.2,68.4,72.4,68.4h0.2c0.9,0,5.3,0,7.3-0.1c10.9-0.8,29.6-5.9,44.3-14l23-12.6
		C171.6,205.9,171.8,205.4,171.6,204.9z"/>
	<path class="st1" d="M144.8,195.5l-12.9-30c-0.3-0.7-1.1-1-1.8-0.6l-7.3,3.7c-7.8,3.9-15.5,5.9-22.6,5.9c-10.2,0-13.3-3-13.3-13.6
		V94.1c0-0.7,0.7-1.2,1.3-1.3l50.4-5.3c0.7-0.1,1.3-0.6,1.3-1.3V54.5c0-0.8-0.8-1.4-1.5-1.3l-49.8,5.5c-0.8,0.1-1.6-0.5-1.6-1.3
		V24.6c0-0.8-0.5-1.4-1.3-1.3l-39.6,4.3c-0.6,0.1-1.1,0.6-1.1,1.3v33.2c0,0.7-0.4,1.2-1.1,1.3L22,65.8c-0.7,0.1-1,0.6-1,1.3v31.6
		c0,0.8,0.6,1.4,1.3,1.3l21.4-2.3c0.8-0.1,1.3,0.5,1.3,1.3v65.6c0,29.2,19.8,47.4,51.4,47.4h0.1l0.1,0c14.4-0.3,28.4-4.1,41.6-11.4
		l6.1-3.3C144.8,196.8,145.1,196.1,144.8,195.5z"/>
</g>
</svg>
